{
  "accessors": [
    {
      "bufferView": 2,
      "componentType": 5126,
      "count": 21952,
      "max": [
        35.6434440612793,
        97.46485900878906,
        35.35691452026367
      ],
      "min": [
        -38.715415954589844,
        -0.020838432013988495,
        -33.89763259887695
      ],
      "type": "VEC3"
    },
    {
      "bufferView": 2,
      "byteOffset": 263424,
      "componentType": 5126,
      "count": 21952,
      "max": [
        0.9998081922531128,
        0.9999604821205139,
        0.9999955296516418
      ],
      "min": [
        -1.0,
        -0.9999995827674866,
        -1.0
      ],
      "type": "VEC3"
    },
    {
      "bufferView": 3,
      "componentType": 5126,
      "count": 21952,
      "max": [
        0.9999884366989136,
        0.9994099140167236,
        0.9999912977218628,
        1.0
      ],
      "min": [
        -0.9999722242355347,
        -0.9999386668205261,
        -0.9999621510505676,
        -1.0
      ],
      "type": "VEC4"
    },
    {
      "bufferView": 1,
      "componentType": 5126,
      "count": 21952,
      "max": [
        0.9964545965194702,
        0.9982883930206299
      ],
      "min": [
        0.0017115529626607895,
        0.0017115094233304262
      ],
      "type": "VEC2"
    },
    {
      "bufferView": 1,
      "byteOffset": 175616,
      "componentType": 5126,
      "count": 21952,
      "max": [
        0.9964545965194702,
        0.9982883930206299
      ],
      "min": [
        0.0017115529626607895,
        0.0017115094233304262
      ],
      "type": "VEC2"
    },
    {
      "bufferView": 1,
      "byteOffset": 351232,
      "componentType": 5126,
      "count": 21952,
      "max": [
        0.9964545965194702,
        0.9982883930206299
      ],
      "min": [
        0.0017115529626607895,
        0.0017115094233304262
      ],
      "type": "VEC2"
    },
    {
      "bufferView": 1,
      "byteOffset": 526848,
      "componentType": 5126,
      "count": 21952,
      "max": [
        0.9964545965194702,
        0.9982883930206299
      ],
      "min": [
        0.0017115529626607895,
        0.0017115094233304262
      ],
      "type": "VEC2"
    },
    {
      "bufferView": 0,
      "componentType": 5125,
      "count": 61290,
      "type": "SCALAR"
    }
  ],
  "asset": {
    "extras": {
      "author": "Jungle Jim (https://sketchfab.com/jungle_jim)",
      "license": "CC-BY-4.0 (http://creativecommons.org/licenses/by/4.0/)",
      "source": "https://sketchfab.com/3d-models/funny-chinese-statue-17f37fb9249a4c97b1f46d4f12f2b6e0",
      "title": "Funny Chinese Statue"
    },
    "generator": "Sketchfab-17.3.0",
    "version": "2.0"
  },
  "bufferViews": [
    {
      "buffer": 0,
      "byteLength": 245160,
      "name": "floatBufferViews",
      "target": 34963
    },
    {
      "buffer": 0,
      "byteLength": 702464,
      "byteOffset": 245160,
      "byteStride": 8,
      "name": "floatBufferViews",
      "target": 34962
    },
    {
      "buffer": 0,
      "byteLength": 526848,
      "byteOffset": 947624,
      "byteStride": 12,
      "name": "floatBufferViews",
      "target": 34962
    },
    {
      "buffer": 0,
      "byteLength": 351232,
      "byteOffset": 1474472,
      "byteStride": 16,
      "name": "floatBufferViews",
      "target": 34962
    }
  ],
  "buffers": [
    {
      "byteLength": 1825704,
      "uri": "scene.bin"
    }
  ],
  "images": [
    {
      "uri": "textures/Funny_Chinese_Statue_by_JJ_gameasset_Mat_1_baseColor.png"
    },
    {
      "uri": "textures/Funny_Chinese_Statue_by_JJ_gameasset_Mat_1_metallicRoughness.png"
    },
    {
      "uri": "textures/Funny_Chinese_Statue_by_JJ_gameasset_Mat_1_normal.png"
    }
  ],
  "materials": [
    {
      "doubleSided": true,
      "name": "Funny_Chinese_Statue_by_JJ_gameasset_Mat_1",
      "normalTexture": {
        "index": 2
      },
      "occlusionTexture": {
        "index": 1
      },
      "pbrMetallicRoughness": {
        "baseColorTexture": {
          "index": 0
        },
        "metallicRoughnessTexture": {
          "index": 1
        }
      }
    }
  ],
  "meshes": [
    {
      "name": "Funny Chinese Statue by JJ_gameasset_Funny Chinese Statue by JJ_gameasset_Mat_1_0",
      "primitives": [
        {
          "attributes": {
            "NORMAL": 1,
            "POSITION": 0,
            "TANGENT": 2,
            "TEXCOORD_0": 3,
            "TEXCOORD_1": 4,
            "TEXCOORD_2": 5,
            "TEXCOORD_3": 6
          },
          "indices": 7,
          "material": 0,
          "mode": 4
        }
      ]
    }
  ],
  "nodes": [
    {
      "children": [
        1
      ],
      "matrix": [
        1.0,
        0.0,
        0.0,
        0.0,
        0.0,
        0.019922604784369247,
        0.999801516532898,
        0.0,
        0.0,
        -0.999801516532898,
        0.019922604784369247,
        0.0,
        0.0,
        0.0,
        0.0,
        1.0
      ],
      "name": "Sketchfab_model"
    },
    {
      "children": [
        2
      ],
      "matrix": [
        0.009999999776482582,
        0.0,
        0.0,
        0.0,
        0.0,
        -0.009999999776482582,
        0.0,
        0.0,
        0.0,
        0.0,
        -0.009999999776482582,
        0.0,
        0.0,
        0.0,
        0.0,
        1.0
      ],
      "name": "4b11243ff33e48a186071408aa7aaf51.fbx"
    },
    {
      "children": [
        3
      ],
      "name": "RootNode"
    },
    {
      "children": [
        4
      ],
      "matrix": [
        1.0,
        0.0,
        0.0,
        0.0,
        0.0,
        2.220446049250313e-16,
        1.0,
        0.0,
        0.0,
        -1.0,
        2.220446049250313e-16,
        0.0,
        0.0,
        0.0,
        0.0,
        1.0
      ],
      "name": "Funny Chinese Statue by JJ_gameasset"
    },
    {
      "mesh": 0,
      "name": "Funny Chinese Statue by JJ_gameasset_Funny Chinese Statue by JJ_gameasset_Mat_1_0"
    }
  ],
  "samplers": [
    {
      "magFilter": 9729,
      "minFilter": 9987,
      "wrapS": 10497,
      "wrapT": 10497
    }
  ],
  "scene": 0,
  "scenes": [
    {
      "name": "Sketchfab_Scene",
      "nodes": [
        0
      ]
    }
  ],
  "textures": [
    {
      "sampler": 0,
      "source": 0
    },
    {
      "sampler": 0,
      "source": 1
    },
    {
      "sampler": 0,
      "source": 2
    }
  ]
}
