{
  "accessors": [
    {
      "bufferView": 2,
      "componentType": 5126,
      "count": 65532,
      "max": [
        0.7993066906929016,
        0.9462044835090637,
        0.3486415147781372
      ],
      "min": [
        -0.8449202179908752,
        -0.9931526780128479,
        -0.3316520154476166
      ],
      "type": "VEC3"
    },
    {
      "bufferView": 2,
      "byteOffset": 786384,
      "componentType": 5126,
      "count": 65532,
      "max": [
        0.9999760389328003,
        0.9999250769615173,
        0.9999798536300659
      ],
      "min": [
        -0.9999979734420776,
        -0.9998584985733032,
        -0.9999517202377319
      ],
      "type": "VEC3"
    },
    {
      "bufferView": 1,
      "componentType": 5126,
      "count": 65532,
      "max": [
        0.9952679872512817,
        0.9969579577445984
      ],
      "min": [
        0.0025541300419718027,
        0.038649022579193115
      ],
      "type": "VEC2"
    },
    {
      "bufferView": 0,
      "componentType": 5125,
      "count": 338373,
      "type": "SCALAR"
    },
    {
      "bufferView": 2,
      "byteOffset": 1572768,
      "componentType": 5126,
      "count": 65532,
      "max": [
        0.7749271988868713,
        0.9180252552032471,
        0.3793521225452423
      ],
      "min": [
        -0.8593637943267822,
        -0.8940713405609131,
        -0.35712602734565735
      ],
      "type": "VEC3"
    },
    {
      "bufferView": 2,
      "byteOffset": 2359152,
      "componentType": 5126,
      "count": 65532,
      "max": [
        0.999925971031189,
        0.9999908804893494,
        0.9999023079872131
      ],
      "min": [
        -0.9998382329940796,
        -0.9998810887336731,
        -0.9999929666519165
      ],
      "type": "VEC3"
    },
    {
      "bufferView": 1,
      "byteOffset": 524256,
      "componentType": 5126,
      "count": 65532,
      "max": [
        0.9968529939651489,
        0.997434675693512
      ],
      "min": [
        0.006507220212370157,
        0.0011389851570129395
      ],
      "type": "VEC2"
    },
    {
      "bufferView": 0,
      "byteOffset": 1353492,
      "componentType": 5125,
      "count": 338316,
      "type": "SCALAR"
    },
    {
      "bufferView": 2,
      "byteOffset": 3145536,
      "componentType": 5126,
      "count": 65532,
      "max": [
        0.7260364890098572,
        0.9579271078109741,
        0.34140655398368835
      ],
      "min": [
        -0.789216935634613,
        -0.999655544757843,
        -0.37114062905311584
      ],
      "type": "VEC3"
    },
    {
      "bufferView": 2,
      "byteOffset": 3931920,
      "componentType": 5126,
      "count": 65532,
      "max": [
        0.9999920129776001,
        0.9999803900718689,
        0.9999933242797852
      ],
      "min": [
        -0.9999462366104126,
        -0.9999129176139832,
        -0.999995231628418
      ],
      "type": "VEC3"
    },
    {
      "bufferView": 1,
      "byteOffset": 1048512,
      "componentType": 5126,
      "count": 65532,
      "max": [
        0.9985020160675049,
        0.9998627305030823
      ],
      "min": [
        2.7361100364942104e-05,
        1.2993812561035156e-05
      ],
      "type": "VEC2"
    },
    {
      "bufferView": 0,
      "byteOffset": 2706756,
      "componentType": 5125,
      "count": 328737,
      "type": "SCALAR"
    },
    {
      "bufferView": 2,
      "byteOffset": 4718304,
      "componentType": 5126,
      "count": 65532,
      "max": [
        0.7122702598571777,
        0.8451077938079834,
        0.3795944154262543
      ],
      "min": [
        -0.7014051079750061,
        -0.9240341186523438,
        -0.2971298396587372
      ],
      "type": "VEC3"
    },
    {
      "bufferView": 2,
      "byteOffset": 5504688,
      "componentType": 5126,
      "count": 65532,
      "max": [
        0.999984860420227,
        0.9999960660934448,
        0.9999943375587463
      ],
      "min": [
        -0.999956488609314,
        -0.9999637007713318,
        -0.9999223947525024
      ],
      "type": "VEC3"
    },
    {
      "bufferView": 1,
      "byteOffset": 1572768,
      "componentType": 5126,
      "count": 65532,
      "max": [
        0.997859001159668,
        0.9998508095741272
      ],
      "min": [
        0.00016800599405542016,
        0.0016829967498779297
      ],
      "type": "VEC2"
    },
    {
      "bufferView": 0,
      "byteOffset": 4021704,
      "componentType": 5125,
      "count": 332691,
      "type": "SCALAR"
    },
    {
      "bufferView": 2,
      "byteOffset": 6291072,
      "componentType": 5126,
      "count": 65532,
      "max": [
        0.5421845316886902,
        0.4623050391674042,
        0.2788865268230438
      ],
      "min": [
        -0.5631182789802551,
        -0.9218376278877258,
        0.08224296569824219
      ],
      "type": "VEC3"
    },
    {
      "bufferView": 2,
      "byteOffset": 7077456,
      "componentType": 5126,
      "count": 65532,
      "max": [
        0.9999768733978271,
        0.9998971819877625,
        0.9999848008155823
      ],
      "min": [
        -0.9999655485153198,
        -0.9999829530715942,
        -0.9999919533729553
      ],
      "type": "VEC3"
    },
    {
      "bufferView": 1,
      "byteOffset": 2097024,
      "componentType": 5126,
      "count": 65532,
      "max": [
        0.9982619881629944,
        0.9998055100440979
      ],
      "min": [
        4.9199399654753506e-05,
        0.001614987850189209
      ],
      "type": "VEC2"
    },
    {
      "bufferView": 0,
      "byteOffset": 5352468,
      "componentType": 5125,
      "count": 316434,
      "type": "SCALAR"
    },
    {
      "bufferView": 2,
      "byteOffset": 7863840,
      "componentType": 5126,
      "count": 65532,
      "max": [
        0.4735030233860016,
        0.23630957305431366,
        0.20935702323913574
      ],
      "min": [
        -0.5738653540611267,
        -0.9696517586708069,
        0.013165564276278019
      ],
      "type": "VEC3"
    },
    {
      "bufferView": 2,
      "byteOffset": 8650224,
      "componentType": 5126,
      "count": 65532,
      "max": [
        0.9999920129776001,
        0.9999510049819946,
        0.9999798536300659
      ],
      "min": [
        -0.9999729990959167,
        -0.9999885559082031,
        -0.9999943971633911
      ],
      "type": "VEC3"
    },
    {
      "bufferView": 1,
      "byteOffset": 2621280,
      "componentType": 5126,
      "count": 65532,
      "max": [
        0.9983959794044495,
        0.9994406700134277
      ],
      "min": [
        7.804019696777686e-05,
        2.9027462005615234e-05
      ],
      "type": "VEC2"
    },
    {
      "bufferView": 0,
      "byteOffset": 6618204,
      "componentType": 5125,
      "count": 320832,
      "type": "SCALAR"
    },
    {
      "bufferView": 2,
      "byteOffset": 9436608,
      "componentType": 5126,
      "count": 65532,
      "max": [
        0.4106954336166382,
        0.860895574092865,
        0.13621625304222107
      ],
      "min": [
        -0.7399975657463074,
        -0.9833937287330627,
        -0.27795130014419556
      ],
      "type": "VEC3"
    },
    {
      "bufferView": 2,
      "byteOffset": 10222992,
      "componentType": 5126,
      "count": 65532,
      "max": [
        0.9999818801879883,
        0.9999929666519165,
        0.9999973177909851
      ],
      "min": [
        -0.999866247177124,
        -0.9999032616615295,
        -0.9999850988388062
      ],
      "type": "VEC3"
    },
    {
      "bufferView": 1,
      "byteOffset": 3145536,
      "componentType": 5126,
      "count": 65532,
      "max": [
        0.9955049753189087,
        0.9965035319328308
      ],
      "min": [
        0.003015770111232996,
        0.0046790242195129395
      ],
      "type": "VEC2"
    },
    {
      "bufferView": 0,
      "byteOffset": 7901532,
      "componentType": 5125,
      "count": 341817,
      "type": "SCALAR"
    },
    {
      "bufferView": 2,
      "byteOffset": 11009376,
      "componentType": 5126,
      "count": 65532,
      "max": [
        0.5317703485488892,
        0.8608713746070862,
        -0.04372705891728401
      ],
      "min": [
        -0.8412363529205322,
        -0.9757911562919617,
        -0.3024572432041168
      ],
      "type": "VEC3"
    },
    {
      "bufferView": 2,
      "byteOffset": 11795760,
      "componentType": 5126,
      "count": 65532,
      "max": [
        0.9999313950538635,
        0.999708354473114,
        0.9999966025352478
      ],
      "min": [
        -0.9999393820762634,
        -0.999640703201294,
        -0.9999889135360718
      ],
      "type": "VEC3"
    },
    {
      "bufferView": 1,
      "byteOffset": 3669792,
      "componentType": 5126,
      "count": 65532,
      "max": [
        0.9983230233192444,
        0.9972858428955078
      ],
      "min": [
        0.0005777130136266351,
        0.003733992576599121
      ],
      "type": "VEC2"
    },
    {
      "bufferView": 0,
      "byteOffset": 9268800,
      "componentType": 5125,
      "count": 328911,
      "type": "SCALAR"
    },
    {
      "bufferView": 2,
      "byteOffset": 12582144,
      "componentType": 5126,
      "count": 65532,
      "max": [
        0.7699213027954102,
        0.948650598526001,
        -0.1479431688785553
      ],
      "min": [
        -0.8421865701675415,
        -0.9786059260368347,
        -0.3095499277114868
      ],
      "type": "VEC3"
    },
    {
      "bufferView": 2,
      "byteOffset": 13368528,
      "componentType": 5126,
      "count": 65532,
      "max": [
        0.9999760389328003,
        0.9999862909317017,
        0.999984622001648
      ],
      "min": [
        -0.9996609091758728,
        -0.9994896650314331,
        -0.9999967217445374
      ],
      "type": "VEC3"
    },
    {
      "bufferView": 1,
      "byteOffset": 4194048,
      "componentType": 5126,
      "count": 65532,
      "max": [
        0.9987589716911316,
        0.9998465776443481
      ],
      "min": [
        0.0006643550004810095,
        7.987022399902344e-06
      ],
      "type": "VEC2"
    },
    {
      "bufferView": 0,
      "byteOffset": 10584444,
      "componentType": 5125,
      "count": 315111,
      "type": "SCALAR"
    },
    {
      "bufferView": 2,
      "byteOffset": 14154912,
      "componentType": 5126,
      "count": 65532,
      "max": [
        0.8593637943267822,
        1.0,
        -0.19412459433078766
      ],
      "min": [
        -0.8444324731826782,
        -0.9809476733207703,
        -0.367264062166214
      ],
      "type": "VEC3"
    },
    {
      "bufferView": 2,
      "byteOffset": 14941296,
      "componentType": 5126,
      "count": 65532,
      "max": [
        0.9999096989631653,
        0.999991774559021,
        0.9997598528862
      ],
      "min": [
        -0.9998008012771606,
        -0.9993751049041748,
        -0.9999986886978149
      ],
      "type": "VEC3"
    },
    {
      "bufferView": 1,
      "byteOffset": 4718304,
      "componentType": 5126,
      "count": 65532,
      "max": [
        0.9979199767112732,
        0.9994295835494995
      ],
      "min": [
        0.000569258991163224,
        0.0035939812660217285
      ],
      "type": "VEC2"
    },
    {
      "bufferView": 0,
      "byteOffset": 11844888,
      "componentType": 5125,
      "count": 329436,
      "type": "SCALAR"
    },
    {
      "bufferView": 2,
      "byteOffset": 15727680,
      "componentType": 5126,
      "count": 65532,
      "max": [
        0.8590288162231445,
        0.9985178709030151,
        0.04299425333738327
      ],
      "min": [
        -0.8589255213737488,
        -0.9926028251647949,
        -0.3795944154262543
      ],
      "type": "VEC3"
    },
    {
      "bufferView": 2,
      "byteOffset": 16514064,
      "componentType": 5126,
      "count": 65532,
      "max": [
        0.9998934268951416,
        0.99983811378479,
        0.9999973177909851
      ],
      "min": [
        -0.9999703168869019,
        -0.9999989867210388,
        -0.9999980926513672
      ],
      "type": "VEC3"
    },
    {
      "bufferView": 1,
      "byteOffset": 5242560,
      "componentType": 5126,
      "count": 65532,
      "max": [
        0.9983260035514832,
        0.9981992244720459
      ],
      "min": [
        0.00019712299399543554,
        1.1980533599853516e-05
      ],
      "type": "VEC2"
    },
    {
      "bufferView": 0,
      "byteOffset": 13162632,
      "componentType": 5125,
      "count": 289140,
      "type": "SCALAR"
    },
    {
      "bufferView": 2,
      "byteOffset": 17300448,
      "componentType": 5126,
      "count": 65532,
      "max": [
        0.45391976833343506,
        0.6824455857276917,
        0.12327807396650314
      ],
      "min": [
        -0.5567523837089539,
        -1.0,
        -0.09105250984430313
      ],
      "type": "VEC3"
    },
    {
      "bufferView": 2,
      "byteOffset": 18086832,
      "componentType": 5126,
      "count": 65532,
      "max": [
        0.9999927282333374,
        0.9998577833175659,
        0.9999778270721436
      ],
      "min": [
        -0.9999868273735046,
        -0.9999751448631287,
        -0.9998893737792969
      ],
      "type": "VEC3"
    },
    {
      "bufferView": 1,
      "byteOffset": 5766816,
      "componentType": 5126,
      "count": 65532,
      "max": [
        0.99897700548172,
        0.9999037981033325
      ],
      "min": [
        8.219949813792482e-05,
        0.00016498565673828125
      ],
      "type": "VEC2"
    },
    {
      "bufferView": 0,
      "byteOffset": 14319192,
      "componentType": 5125,
      "count": 313089,
      "type": "SCALAR"
    },
    {
      "bufferView": 2,
      "byteOffset": 18873216,
      "componentType": 5126,
      "count": 65532,
      "max": [
        0.4738801419734955,
        0.5025218725204468,
        0.13758370280265808
      ],
      "min": [
        -0.5448412299156189,
        -0.9993721842765808,
        -0.02134741097688675
      ],
      "type": "VEC3"
    },
    {
      "bufferView": 2,
      "byteOffset": 19659600,
      "componentType": 5126,
      "count": 65532,
      "max": [
        0.9999774694442749,
        0.9999913573265076,
        0.9999546408653259
      ],
      "min": [
        -0.9999556541442871,
        -0.999951958656311,
        -0.9999762177467346
      ],
      "type": "VEC3"
    },
    {
      "bufferView": 1,
      "byteOffset": 6291072,
      "componentType": 5126,
      "count": 65532,
      "max": [
        0.9988870024681091,
        0.9999709129333496
      ],
      "min": [
        0.000192074992810376,
        0.001613020896911621
      ],
      "type": "VEC2"
    },
    {
      "bufferView": 0,
      "byteOffset": 15571548,
      "componentType": 5125,
      "count": 312477,
      "type": "SCALAR"
    },
    {
      "bufferView": 2,
      "byteOffset": 20445984,
      "componentType": 5126,
      "count": 15432,
      "max": [
        0.4737495481967926,
        0.29964178800582886,
        0.1436440646648407
      ],
      "min": [
        -0.5738653540611267,
        -0.9791420698165894,
        0.07584420591592789
      ],
      "type": "VEC3"
    },
    {
      "bufferView": 2,
      "byteOffset": 20631168,
      "componentType": 5126,
      "count": 15432,
      "max": [
        0.9993040561676025,
        0.9999469518661499,
        0.9994621276855469
      ],
      "min": [
        -0.9995094537734985,
        -0.9997373223304749,
        -0.999808132648468
      ],
      "type": "VEC3"
    },
    {
      "bufferView": 1,
      "byteOffset": 6815328,
      "componentType": 5126,
      "count": 15432,
      "max": [
        0.9983999729156494,
        0.9994608759880066
      ],
      "min": [
        0.00013459099864121526,
        0.00011998414993286133
      ],
      "type": "VEC2"
    },
    {
      "bufferView": 0,
      "byteOffset": 16821456,
      "componentType": 5125,
      "count": 55983,
      "type": "SCALAR"
    }
  ],
  "asset": {
    "extras": {
      "author": "Miniature Collectors Club (https://sketchfab.com/Alberto.Zanini)",
      "license": "CC-BY-4.0 (http://creativecommons.org/licenses/by/4.0/)",
      "source": "https://sketchfab.com/3d-models/altan-avian-priestess-bc4b4ef07b2e4b139b0eb5f9011f219d",
      "title": "Altan Avian Priestess"
    },
    "generator": "Sketchfab-17.3.0",
    "version": "2.0"
  },
  "bufferViews": [
    {
      "buffer": 0,
      "byteLength": 17045388,
      "name": "floatBufferViews",
      "target": 34963
    },
    {
      "buffer": 0,
      "byteLength": 6938784,
      "byteOffset": 17045388,
      "byteStride": 8,
      "name": "floatBufferViews",
      "target": 34962
    },
    {
      "buffer": 0,
      "byteLength": 20816352,
      "byteOffset": 23984172,
      "byteStride": 12,
      "name": "floatBufferViews",
      "target": 34962
    }
  ],
  "buffers": [
    {
      "byteLength": 44800524,
      "uri": "scene.bin"
    }
  ],
  "images": [
    {
      "uri": "textures/material_0_baseColor.jpeg"
    }
  ],
  "materials": [
    {
      "doubleSided": true,
      "name": "material_0",
      "pbrMetallicRoughness": {
        "baseColorTexture": {
          "index": 0
        },
        "metallicFactor": 0.0,
        "roughnessFactor": 0.8
      }
    }
  ],
  "meshes": [
    {
      "name": "Object_0",
      "primitives": [
        {
          "attributes": {
            "NORMAL": 1,
            "POSITION": 0,
            "TEXCOORD_0": 2
          },
          "indices": 3,
          "material": 0,
          "mode": 4
        }
      ]
    },
    {
      "name": "Object_1",
      "primitives": [
        {
          "attributes": {
            "NORMAL": 5,
            "POSITION": 4,
            "TEXCOORD_0": 6
          },
          "indices": 7,
          "material": 0,
          "mode": 4
        }
      ]
    },
    {
      "name": "Object_2",
      "primitives": [
        {
          "attributes": {
            "NORMAL": 9,
            "POSITION": 8,
            "TEXCOORD_0": 10
          },
          "indices": 11,
          "material": 0,
          "mode": 4
        }
      ]
    },
    {
      "name": "Object_3",
      "primitives": [
        {
          "attributes": {
            "NORMAL": 13,
            "POSITION": 12,
            "TEXCOORD_0": 14
          },
          "indices": 15,
          "material": 0,
          "mode": 4
        }
      ]
    },
    {
      "name": "Object_4",
      "primitives": [
        {
          "attributes": {
            "NORMAL": 17,
            "POSITION": 16,
            "TEXCOORD_0": 18
          },
          "indices": 19,
          "material": 0,
          "mode": 4
        }
      ]
    },
    {
      "name": "Object_5",
      "primitives": [
        {
          "attributes": {
            "NORMAL": 21,
            "POSITION": 20,
            "TEXCOORD_0": 22
          },
          "indices": 23,
          "material": 0,
          "mode": 4
        }
      ]
    },
    {
      "name": "Object_6",
      "primitives": [
        {
          "attributes": {
            "NORMAL": 25,
            "POSITION": 24,
            "TEXCOORD_0": 26
          },
          "indices": 27,
          "material": 0,
          "mode": 4
        }
      ]
    },
    {
      "name": "Object_7",
      "primitives": [
        {
          "attributes": {
            "NORMAL": 29,
            "POSITION": 28,
            "TEXCOORD_0": 30
          },
          "indices": 31,
          "material": 0,
          "mode": 4
        }
      ]
    },
    {
      "name": "Object_8",
      "primitives": [
        {
          "attributes": {
            "NORMAL": 33,
            "POSITION": 32,
            "TEXCOORD_0": 34
          },
          "indices": 35,
          "material": 0,
          "mode": 4
        }
      ]
    },
    {
      "name": "Object_9",
      "primitives": [
        {
          "attributes": {
            "NORMAL": 37,
            "POSITION": 36,
            "TEXCOORD_0": 38
          },
          "indices": 39,
          "material": 0,
          "mode": 4
        }
      ]
    },
    {
      "name": "Object_10",
      "primitives": [
        {
          "attributes": {
            "NORMAL": 41,
            "POSITION": 40,
            "TEXCOORD_0": 42
          },
          "indices": 43,
          "material": 0,
          "mode": 4
        }
      ]
    },
    {
      "name": "Object_11",
      "primitives": [
        {
          "attributes": {
            "NORMAL": 45,
            "POSITION": 44,
            "TEXCOORD_0": 46
          },
          "indices": 47,
          "material": 0,
          "mode": 4
        }
      ]
    },
    {
      "name": "Object_12",
      "primitives": [
        {
          "attributes": {
            "NORMAL": 49,
            "POSITION": 48,
            "TEXCOORD_0": 50
          },
          "indices": 51,
          "material": 0,
          "mode": 4
        }
      ]
    },
    {
      "name": "Object_13",
      "primitives": [
        {
          "attributes": {
            "NORMAL": 53,
            "POSITION": 52,
            "TEXCOORD_0": 54
          },
          "indices": 55,
          "material": 0,
          "mode": 4
        }
      ]
    }
  ],
  "nodes": [
    {
      "children": [
        1
      ],
      "matrix": [
        1.3333333730697632,
        0.0,
        0.0,
        0.0,
        0.0,
        2.9605948205663494e-16,
        -1.3333333730697632,
        0.0,
        0.0,
        1.3333333730697632,
        2.9605948205663494e-16,
        0.0,
        0.0,
        0.0,
        0.0,
        1.0
      ],
      "name": "Sketchfab_model"
    },
    {
      "children": [
        2
      ],
      "name": "root"
    },
    {
      "children": [
        3
      ],
      "matrix": [
        1.0,
        0.0,
        0.0,
        0.0,
        0.0,
        2.220446049250313e-16,
        1.0,
        0.0,
        0.0,
        -1.0,
        2.220446049250313e-16,
        0.0,
        0.0,
        0.0,
        0.0,
        1.0
      ],
      "name": "GLTF_SceneRootNode"
    },
    {
      "children": [
        4
      ],
      "name": "_1"
    },
    {
      "children": [
        5,
        6,
        7,
        8,
        9,
        10,
        11,
        12,
        13,
        14,
        15,
        16,
        17,
        18
      ],
      "name": "mesh_0_0"
    },
    {
      "mesh": 0,
      "name": "Object_5"
    },
    {
      "mesh": 1,
      "name": "Object_6"
    },
    {
      "mesh": 2,
      "name": "Object_7"
    },
    {
      "mesh": 3,
      "name": "Object_8"
    },
    {
      "mesh": 4,
      "name": "Object_9"
    },
    {
      "mesh": 5,
      "name": "Object_10"
    },
    {
      "mesh": 6,
      "name": "Object_11"
    },
    {
      "mesh": 7,
      "name": "Object_12"
    },
    {
      "mesh": 8,
      "name": "Object_13"
    },
    {
      "mesh": 9,
      "name": "Object_14"
    },
    {
      "mesh": 10,
      "name": "Object_15"
    },
    {
      "mesh": 11,
      "name": "Object_16"
    },
    {
      "mesh": 12,
      "name": "Object_17"
    },
    {
      "mesh": 13,
      "name": "Object_18"
    }
  ],
  "samplers": [
    {
      "magFilter": 9729,
      "minFilter": 9987,
      "wrapS": 10497,
      "wrapT": 10497
    }
  ],
  "scene": 0,
  "scenes": [
    {
      "name": "Sketchfab_Scene",
      "nodes": [
        0
      ]
    }
  ],
  "textures": [
    {
      "sampler": 0,
      "source": 0
    }
  ]
}
